<svg xmlns="http://www.w3.org/2000/svg" width="54" height="54" viewBox="0 0 54 54" fill="none">
  <g clip-path="url(#clip0_68_1360)" filter="url(#filter0_d_68_1360)">
    <path d="M46.7917 4.16666H7.20834C6.79404 4.15211 6.38118 4.22298 5.99546 4.37488C5.60973 4.52678 5.2594 4.75644 4.96626 5.04958C4.67313 5.34271 4.44347 5.69304 4.29157 6.07877C4.13967 6.46449 4.06879 6.87736 4.08334 7.29166V19.6875H9.60418L11.4792 15.8333C11.6435 15.4784 11.9093 15.1802 12.243 14.9763C12.5768 14.7724 12.9634 14.6719 13.3542 14.6875C13.74 14.6961 14.1167 14.8066 14.446 15.0079C14.7753 15.2091 15.0455 15.4939 15.2292 15.8333L18.25 22.1875L23.25 11.5625C23.4206 11.2103 23.687 10.9132 24.0186 10.7054C24.3502 10.4975 24.7336 10.3873 25.125 10.3873C25.5164 10.3873 25.8998 10.4975 26.2314 10.7054C26.5631 10.9132 26.8294 11.2103 27 11.5625L30.8542 19.6875H33.25C33.8025 19.6875 34.3324 19.907 34.7231 20.2977C35.1138 20.6884 35.3333 21.2183 35.3333 21.7708C35.3333 22.3234 35.1138 22.8533 34.7231 23.244C34.3324 23.6347 33.8025 23.8542 33.25 23.8542H29.5C29.1063 23.825 28.7268 23.6945 28.3983 23.4755C28.0697 23.2565 27.8034 22.9564 27.625 22.6042L25.125 17.3958L20.125 28.0208C19.9413 28.3602 19.6711 28.645 19.3418 28.8463C19.0125 29.0475 18.6358 29.158 18.25 29.1667C17.8592 29.1823 17.4726 29.0818 17.1389 28.8779C16.8052 28.6739 16.5394 28.3757 16.375 28.0208L13.3542 21.6667L12.8333 22.6042C12.6736 22.9704 12.4119 23.2829 12.0794 23.5045C11.747 23.7262 11.3578 23.8475 10.9583 23.8542H4.08334V36.4583C4.08334 37.2871 4.41258 38.082 4.99863 38.668C5.58469 39.2541 6.37954 39.5833 7.20834 39.5833H46.7917C47.6205 39.5833 48.4153 39.2541 49.0014 38.668C49.5874 38.082 49.9167 37.2871 49.9167 36.4583V7.29166C49.9312 6.87736 49.8603 6.46449 49.7084 6.07877C49.5565 5.69304 49.3269 5.34271 49.0338 5.04958C48.7406 4.75644 48.3903 4.52678 48.0046 4.37488C47.6188 4.22298 47.206 4.15211 46.7917 4.16666ZM32.625 32.7083C32.2404 33.1009 31.7162 33.3255 31.1667 33.3333H27C26.4475 33.3333 25.9176 33.1138 25.5269 32.7231C25.1362 32.3324 24.9167 31.8025 24.9167 31.25C24.9003 30.975 24.9482 30.7001 25.0567 30.4469C25.1652 30.1937 25.3313 29.9694 25.5417 29.7917C25.9263 29.3991 26.4505 29.1745 27 29.1667H31.1667C31.7192 29.1667 32.2491 29.3862 32.6398 29.7768C33.0305 30.1676 33.25 30.6975 33.25 31.25C33.2664 31.5249 33.2185 31.7999 33.11 32.0531C33.0015 32.3062 32.8354 32.5306 32.625 32.7083ZM43.0417 32.7083C42.657 33.1009 42.1329 33.3255 41.5833 33.3333H37.4167C36.8641 33.3333 36.3342 33.1138 35.9435 32.7231C35.5528 32.3324 35.3333 31.8025 35.3333 31.25C35.3169 30.975 35.3649 30.7001 35.4734 30.4469C35.5819 30.1937 35.7479 29.9694 35.9583 29.7917C36.343 29.3991 36.8672 29.1745 37.4167 29.1667H41.5833C42.1359 29.1667 42.6658 29.3862 43.0565 29.7768C43.4472 30.1676 43.6667 30.6975 43.6667 31.25C43.6831 31.5249 43.6351 31.7999 43.5266 32.0531C43.4181 32.3062 43.2521 32.5306 43.0417 32.7083Z" fill="#53D8FB"/>
    <path d="M40.5417 41.6667H13.4583C12.9058 41.6667 12.3759 41.8862 11.9852 42.2769C11.5945 42.6676 11.375 43.1975 11.375 43.7501C11.375 44.3026 11.5945 44.8325 11.9852 45.2232C12.3759 45.6139 12.9058 45.8334 13.4583 45.8334H40.5417C41.0942 45.8334 41.6241 45.6139 42.0148 45.2232C42.4055 44.8325 42.625 44.3026 42.625 43.7501C42.625 43.1975 42.4055 42.6676 42.0148 42.2769C41.6241 41.8862 41.0942 41.6667 40.5417 41.6667Z" fill="#53D8FB"/>
  </g>
  <defs>
    <filter id="filter0_d_68_1360" x="-2" y="0" width="58" height="58" filterUnits="userSpaceOnUse" color-interpolation-filters="sRGB">
      <feFlood flood-opacity="0" result="BackgroundImageFix"/>
      <feColorMatrix in="SourceAlpha" type="matrix" values="0 0 0 0 0 0 0 0 0 0 0 0 0 0 0 0 0 0 127 0" result="hardAlpha"/>
      <feOffset dy="4"/>
      <feGaussianBlur stdDeviation="2"/>
      <feComposite in2="hardAlpha" operator="out"/>
      <feColorMatrix type="matrix" values="0 0 0 0 0 0 0 0 0 0 0 0 0 0 0 0 0 0 0.25 0"/>
      <feBlend mode="normal" in2="BackgroundImageFix" result="effect1_dropShadow_68_1360"/>
      <feBlend mode="normal" in="SourceGraphic" in2="effect1_dropShadow_68_1360" result="shape"/>
    </filter>
    <clipPath id="clip0_68_1360">
      <rect width="50" height="50" fill="white" transform="translate(2)"/>
    </clipPath>
  </defs>
</svg>