<svg xmlns="http://www.w3.org/2000/svg" width="32" height="32" viewBox="0 0 32 32" fill="none">
  <g clip-path="url(#clip0_181_550)">
    <path d="M27.9998 9.33334C28.3535 9.33334 28.6926 9.47382 28.9426 9.72387C29.1927 9.97392 29.3332 10.3131 29.3332 10.6667C29.3332 11.0203 29.1927 11.3594 28.9426 11.6095C28.6926 11.8595 28.3535 12 27.9998 12V25.3333C28.3535 25.3333 28.6926 25.4738 28.9426 25.7239C29.1927 25.9739 29.3332 26.3131 29.3332 26.6667C29.3332 27.0203 29.1927 27.3594 28.9426 27.6095C28.6926 27.8595 28.3535 28 27.9998 28H3.99984C3.64622 28 3.30708 27.8595 3.05703 27.6095C2.80698 27.3594 2.6665 27.0203 2.6665 26.6667C2.6665 26.3131 2.80698 25.9739 3.05703 25.7239C3.30708 25.4738 3.64622 25.3333 3.99984 25.3333V12C3.64622 12 3.30708 11.8595 3.05703 11.6095C2.80698 11.3594 2.6665 11.0203 2.6665 10.6667C2.6665 10.3131 2.80698 9.97392 3.05703 9.72387C3.30708 9.47382 3.64622 9.33334 3.99984 9.33334H27.9998ZM9.33317 14.6667C8.97955 14.6667 8.64041 14.8072 8.39036 15.0572C8.14031 15.3072 7.99984 15.6464 7.99984 16V25.3333H10.6665V16C10.6665 15.6464 10.526 15.3072 10.276 15.0572C10.0259 14.8072 9.68679 14.6667 9.33317 14.6667ZM15.9998 14.6667C15.6462 14.6667 15.3071 14.8072 15.057 15.0572C14.807 15.3072 14.6665 15.6464 14.6665 16V25.3333H17.3332V16C17.3332 15.6464 17.1927 15.3072 16.9426 15.0572C16.6926 14.8072 16.3535 14.6667 15.9998 14.6667ZM22.6665 14.6667C22.3129 14.6667 21.9737 14.8072 21.7237 15.0572C21.4736 15.3072 21.3332 15.6464 21.3332 16V25.3333H23.9998V16C23.9998 15.6464 23.8594 15.3072 23.6093 15.0572C23.3593 14.8072 23.0201 14.6667 22.6665 14.6667ZM23.9998 5.33334C24.3535 5.33334 24.6926 5.47382 24.9426 5.72387C25.1927 5.97392 25.3332 6.31305 25.3332 6.66668C25.3332 7.0203 25.1927 7.35944 24.9426 7.60949C24.6926 7.85953 24.3535 8.00001 23.9998 8.00001H7.99984C7.64621 8.00001 7.30708 7.85953 7.05703 7.60949C6.80698 7.35944 6.6665 7.0203 6.6665 6.66668C6.6665 6.31305 6.80698 5.97392 7.05703 5.72387C7.30708 5.47382 7.64621 5.33334 7.99984 5.33334H23.9998Z" fill="#B8BED9"/>
  </g>
  <defs>
    <clipPath id="clip0_181_550">
      <rect width="32" height="32" fill="white"/>
    </clipPath>
  </defs>
</svg>