<svg xmlns="http://www.w3.org/2000/svg" width="50" height="50" viewBox="0 0 50 50" fill="none">
  <path d="M43.3654 10.4807H6.63461C4.32692 10.4807 2.40384 12.4038 2.40384 14.7115V35.1922C2.40384 37.4999 4.32692 39.423 6.63461 39.423H43.3654C45.6731 39.423 47.5961 37.4999 47.5961 35.1922V14.8076C47.5961 12.4038 45.6731 10.4807 43.3654 10.4807ZM11.5385 35.1922C11.5385 32.4038 9.32692 30.2884 6.63461 30.2884V19.7115C9.42307 19.7115 11.5385 17.4999 11.5385 14.8076H38.4615C38.4615 17.5961 40.6731 19.7115 43.3654 19.7115V30.2884C40.5769 30.2884 38.4615 32.4999 38.4615 35.1922H11.5385Z" fill="white"/>
  <path d="M25 31.6345C28.8766 31.6345 32.0192 28.4919 32.0192 24.6153C32.0192 20.7387 28.8766 17.5961 25 17.5961C21.1234 17.5961 17.9808 20.7387 17.9808 24.6153C17.9808 28.4919 21.1234 31.6345 25 31.6345Z" fill="white"/>
</svg>