<svg xmlns="http://www.w3.org/2000/svg" width="26" height="28" viewBox="0 0 26 28" fill="none">
  <path d="M9.17987 25.6978V21.6208C9.17987 20.5801 10.0297 19.7364 11.0781 19.7364H14.9103C15.4137 19.7364 15.8966 19.9349 16.2525 20.2883C16.6085 20.6417 16.8085 21.121 16.8085 21.6208V25.6978C16.8053 26.1305 16.9762 26.5465 17.2833 26.8536C17.5904 27.1606 18.0082 27.3333 18.4441 27.3333H21.0586C22.2797 27.3365 23.4518 26.8571 24.3164 26.0011C25.1809 25.145 25.6668 23.9826 25.6668 22.7704V11.1558C25.6668 10.1766 25.2296 9.24779 24.473 8.61956L15.5789 1.56783C14.0317 0.331417 11.815 0.371337 10.314 1.66264L1.62285 8.61956C0.830484 9.22927 0.356899 10.1608 0.333496 11.1558V22.7586C0.333496 25.2851 2.39667 27.3333 4.94173 27.3333H7.49655C8.4018 27.3333 9.13749 26.6083 9.14405 25.7096L9.17987 25.6978Z" fill="white"/>
</svg>