<svg xmlns="http://www.w3.org/2000/svg" width="32" height="32" viewBox="0 0 32 32" fill="none">
  <path d="M16 17.3333C14.2319 17.3333 12.5362 16.6309 11.286 15.3807C10.0357 14.1305 9.33333 12.4348 9.33333 10.6667H12C12 11.7275 12.4214 12.7449 13.1716 13.4951C13.9217 14.2452 14.9391 14.6667 16 14.6667C17.0609 14.6667 18.0783 14.2452 18.8284 13.4951C19.5786 12.7449 20 11.7275 20 10.6667H22.6667C22.6667 12.4348 21.9643 14.1305 20.714 15.3807C19.4638 16.6309 17.7681 17.3333 16 17.3333ZM16 3.99999C17.0609 3.99999 18.0783 4.42142 18.8284 5.17157C19.5786 5.92171 20 6.93913 20 8H12C12 6.93913 12.4214 5.92171 13.1716 5.17157C13.9217 4.42142 14.9391 3.99999 16 3.99999ZM25.3333 8H22.6667C22.6667 7.12452 22.4942 6.25761 22.1592 5.44877C21.8242 4.63993 21.3331 3.90501 20.714 3.28595C20.095 2.66689 19.3601 2.17583 18.5512 1.8408C17.7424 1.50577 16.8755 1.33333 16 1.33333C14.2319 1.33333 12.5362 2.03571 11.286 3.28595C10.0357 4.53619 9.33333 6.23188 9.33333 8H6.66667C5.18667 8 4 9.18666 4 10.6667V26.6667C4 27.3739 4.28095 28.0522 4.78105 28.5523C5.28115 29.0524 5.95942 29.3333 6.66667 29.3333H25.3333C26.0406 29.3333 26.7189 29.0524 27.219 28.5523C27.719 28.0522 28 27.3739 28 26.6667V10.6667C28 9.95942 27.719 9.28114 27.219 8.78104C26.7189 8.28095 26.0406 8 25.3333 8Z" fill="#B8BED9"/>
</svg>