<svg xmlns="http://www.w3.org/2000/svg" width="103" height="33" viewBox="0 0 103 33" fill="none">
  <path d="M151.996 -37.5C151.996 -39.3959 151.911 -41.2743 151.744 -43.132L149.254 -42.9077C148.926 -46.5431 148.272 -50.0945 147.316 -53.5375L149.726 -54.2058C148.717 -57.8429 147.386 -61.3619 145.765 -64.7361L143.512 -63.6533C141.951 -66.9005 140.109 -70.0108 138.013 -72.9585L140.051 -74.4072C137.891 -77.4445 135.474 -80.313 132.829 -82.9874L131.052 -81.2294C128.534 -83.775 125.8 -86.1408 122.875 -88.3028L124.362 -90.3131C121.387 -92.5119 118.225 -94.5057 114.9 -96.2719L113.727 -94.0641C110.576 -95.7385 107.271 -97.2022 103.838 -98.4339L104.682 -100.787C101.218 -102.03 97.6283 -103.043 93.9354 -103.808L93.4287 -101.36C89.9465 -102.081 86.3685 -102.573 82.7148 -102.819L82.8825 -105.313C81.04 -105.437 79.1793 -105.5 77.3028 -105.5C75.4263 -105.5 73.5656 -105.437 71.7231 -105.313L71.8908 -102.819C68.2371 -102.573 64.6591 -102.081 61.177 -101.36L60.6702 -103.808C56.9773 -103.043 53.3875 -102.03 49.9235 -100.787L50.7677 -98.4339C47.3344 -97.2022 44.03 -95.7385 40.8781 -94.0641L39.7053 -96.2719C36.3806 -94.5057 33.2182 -92.5119 30.2441 -90.3131L31.7303 -88.3028C28.8059 -86.1408 26.0717 -83.775 23.5541 -81.2294L21.7766 -82.9874C19.1315 -80.313 16.7145 -77.4445 14.555 -74.4072L16.5925 -72.9585C14.4966 -70.0108 12.6545 -66.9005 11.094 -63.6533L8.84069 -64.7361C7.21923 -61.3619 5.88901 -57.8429 4.88008 -54.2058L7.28911 -53.5375C6.33401 -50.0945 5.67935 -46.5431 5.3519 -42.9077L2.86198 -43.132C2.69465 -41.2743 2.60938 -39.3959 2.60938 -37.5C2.60938 -35.6041 2.69465 -33.7258 2.86198 -31.868L5.3519 -32.0923C5.67935 -28.4569 6.33401 -24.9055 7.28911 -21.4625L4.88008 -20.7942C5.88902 -17.1571 7.21923 -13.6381 8.84069 -10.2639L11.094 -11.3467C12.6545 -8.09946 14.4966 -4.98923 16.5925 -2.04145L14.555 -0.592796C16.7145 2.44453 19.1315 5.31297 21.7766 7.98743L23.5541 6.22944C26.0717 8.77504 28.8059 11.1408 31.7303 13.3028L30.2441 15.3131C33.2182 17.5119 36.3806 19.5057 39.7053 21.2719L40.8781 19.0641C44.03 20.7385 47.3344 22.2022 50.7677 23.4339L49.9235 25.7871C53.3875 27.0298 56.9773 28.0435 60.6702 28.8079L61.177 26.3598C64.6591 27.0807 68.2371 27.5731 71.8908 27.8187L71.7231 30.3131C73.5656 30.437 75.4263 30.5 77.3028 30.5C79.1793 30.5 81.04 30.437 82.8825 30.3131L82.7148 27.8187C86.3685 27.5731 89.9465 27.0807 93.4286 26.3598L93.9354 28.8079C97.6283 28.0435 101.218 27.0298 104.682 25.7871L103.838 23.4339C107.271 22.2022 110.576 20.7385 113.727 19.0641L114.9 21.2719C118.225 19.5057 121.387 17.5119 124.362 15.3131L122.875 13.3028C125.8 11.1408 128.534 8.77503 131.052 6.22943L132.829 7.98743C135.474 5.31297 137.891 2.44453 140.051 -0.592796L138.013 -2.04146C140.109 -4.98923 141.951 -8.09946 143.512 -11.3467L145.765 -10.2639C147.386 -13.6381 148.717 -17.1571 149.726 -20.7942L147.316 -21.4625C148.272 -24.9055 148.926 -28.4569 149.254 -32.0923L151.744 -31.868C151.911 -33.7258 151.996 -35.6041 151.996 -37.5Z" stroke="url(#paint0_linear_261_1601)" stroke-width="5" stroke-dasharray="10 10"/>
  <defs>
    <linearGradient id="paint0_linear_261_1601" x1="53.0546" y1="-93.5" x2="73.1276" y2="28.6859" gradientUnits="userSpaceOnUse">
      <stop stop-color="#4081FF"/>
    </linearGradient>
  </defs>
</svg>