<svg xmlns="http://www.w3.org/2000/svg" width="50" height="50" viewBox="0 0 50 50" fill="none">
  <path d="M49.6094 26.211C49.6094 26.6602 49.6094 33.2422 49.6094 35.8789C49.6094 36.7774 48.9062 36.9532 48.418 36.9532C47.9102 36.9532 42.3828 36.9532 42.3828 36.9532C41.1914 38.4766 39.668 39.8242 37.9102 40.9961V46.3086C37.9102 47.0899 37.2656 47.7344 36.4844 47.7344H31.2891C30.5078 47.7344 29.8633 47.0899 29.8633 46.3086V44.4141C27.7148 44.9219 25.4102 45.1953 23.0273 45.1953C20.4102 45.1953 17.9102 44.8633 15.5859 44.2578V46.3086C15.5859 47.0899 14.9414 47.7344 14.1602 47.7344H8.94531C8.16406 47.7344 7.51953 47.0899 7.51953 46.3086V40.586C3.26172 37.5391 0.585938 33.2617 0.585938 28.5352C0.585938 22.4414 5 17.1289 11.582 14.2188H11.6406C13.125 18.5352 17.2266 21.6602 22.0508 21.6602C27.1094 21.6602 31.4062 18.2227 32.6953 13.5352C33.8086 13.9258 34.8633 14.375 35.8594 14.9024C36.8555 12.7539 40.1953 10.3907 44.9023 11.3867C45.4297 11.5039 45.7227 12.0703 45.5078 12.5782L42.3047 20.0586C43.6133 21.6797 44.5508 23.4961 45.0391 25.4102C45.0391 25.4102 47.9297 25.4102 48.5938 25.4102C49.2383 25.4102 49.6094 25.6446 49.6094 26.211ZM13.3789 10.7227C13.3398 5.80081 17.3047 1.7969 22.2461 1.87503C26.9336 1.95315 30.7617 5.78128 30.8398 10.4688C30.918 15.4688 26.8164 19.5117 21.8164 19.3555C17.168 19.2188 13.418 15.3907 13.3789 10.7227ZM23.2422 12.6758C23.2422 13.2813 22.7539 13.711 21.7578 13.711C20.8203 13.711 19.9414 13.3789 19.3945 13.1055L18.9453 14.8828C19.4531 15.1758 20.5078 15.4492 21.543 15.4492V16.7774H22.7539V15.4102C24.5312 15.0196 25.3516 13.9649 25.3516 12.5977C25.3516 11.2305 24.5898 10.3907 22.9297 9.78518C21.7188 9.2969 21.1523 9.06253 21.1523 8.45706C21.1523 8.00784 21.6406 7.57815 22.5195 7.57815C23.3984 7.57815 24.0625 7.85159 24.4531 8.02737L24.9414 6.30862C24.4141 6.01565 23.6914 5.82034 22.6758 5.82034V4.45315H21.4648V5.89846C19.8438 6.23049 18.9648 7.26565 18.9648 8.59378C18.9648 10.0391 19.9609 10.8399 21.5625 11.4063C22.7734 11.8164 23.2422 12.0703 23.2422 12.6758Z" fill="white"/>
</svg>