<svg xmlns="http://www.w3.org/2000/svg" width="32" height="32" viewBox="0 0 32 32" fill="none">
  <path d="M9.99984 10.6667C11.0607 10.6667 12.0781 10.2452 12.8283 9.49509C13.5784 8.74495 13.9998 7.72753 13.9998 6.66666C13.9998 5.6058 13.5784 4.58838 12.8283 3.83824C12.0781 3.08809 11.0607 2.66666 9.99984 2.66666C8.93897 2.66666 7.92156 3.08809 7.17141 3.83824C6.42126 4.58838 5.99984 5.6058 5.99984 6.66666C5.99984 7.72753 6.42126 8.74495 7.17141 9.49509C7.92156 10.2452 8.93897 10.6667 9.99984 10.6667ZM2.6665 14.3573C2.6665 13.0533 3.72117 12 5.02384 12H11.3798C10.911 12.8104 10.6649 13.7304 10.6665 14.6667C10.6656 15.4234 10.8262 16.1717 11.1375 16.8615C11.4488 17.5513 11.9037 18.1667 12.4718 18.6667H11.0238C10.2724 18.6667 9.53879 18.896 8.92103 19.3238C8.30328 19.7517 7.83074 20.3578 7.5665 21.0613C5.56917 20.5733 4.3305 19.484 3.60117 18.2707C2.6665 16.7147 2.6665 15.1147 2.6665 14.836V14.3573ZM21.3332 14.6667C21.3348 13.7304 21.0887 12.8104 20.6198 12H26.9758C28.2798 12 29.3332 13.0547 29.3332 14.3573V14.8373C29.3332 15.1133 29.3332 16.7147 28.3998 18.2707C27.6692 19.484 26.4305 20.5733 24.4332 21.0613C24.1691 20.3577 23.6966 19.7515 23.0788 19.3236C22.461 18.8957 21.7273 18.6665 20.9758 18.6667H19.5278C20.0959 18.1667 20.5509 17.5513 20.8622 16.8615C21.1735 16.1717 21.3341 15.4234 21.3332 14.6667ZM25.9998 6.66666C25.9998 7.72753 25.5784 8.74495 24.8283 9.49509C24.0781 10.2452 23.0607 10.6667 21.9998 10.6667C20.939 10.6667 19.9216 10.2452 19.1714 9.49509C18.4213 8.74495 17.9998 7.72753 17.9998 6.66666C17.9998 5.6058 18.4213 4.58838 19.1714 3.83824C19.9216 3.08809 20.939 2.66666 21.9998 2.66666C23.0607 2.66666 24.0781 3.08809 24.8283 3.83824C25.5784 4.58838 25.9998 5.6058 25.9998 6.66666ZM8.6665 22.3573C8.6665 21.0533 9.72117 20 11.0238 20H20.9758C22.2785 20 23.3332 21.0547 23.3332 22.3573V22.8373C23.3332 23.1133 23.3332 24.7147 22.3998 26.2707C21.4092 27.916 19.4838 29.3333 15.9998 29.3333C12.5158 29.3333 10.5892 27.916 9.59984 26.2707C8.6665 24.7147 8.6665 23.1147 8.6665 22.836V22.3573ZM15.9998 18.6667C16.5251 18.6667 17.0453 18.5632 17.5306 18.3622C18.0159 18.1612 18.4568 17.8665 18.8283 17.4951C19.1997 17.1237 19.4943 16.6827 19.6954 16.1974C19.8964 15.7121 19.9998 15.192 19.9998 14.6667C19.9998 14.1414 19.8964 13.6212 19.6954 13.1359C19.4943 12.6506 19.1997 12.2097 18.8283 11.8382C18.4568 11.4668 18.0159 11.1722 17.5306 10.9711C17.0453 10.7701 16.5251 10.6667 15.9998 10.6667C14.939 10.6667 13.9216 11.0881 13.1714 11.8382C12.4213 12.5884 11.9998 13.6058 11.9998 14.6667C11.9998 15.7275 12.4213 16.7449 13.1714 17.4951C13.9216 18.2452 14.939 18.6667 15.9998 18.6667Z" fill="#B8BED9"/>
</svg>