<svg xmlns="http://www.w3.org/2000/svg" width="50" height="50" viewBox="0 0 50 50" fill="none">
  <g clip-path="url(#clip0_65_1308)">
    <g filter="url(#filter0_d_65_1308)">
      <path d="M27.8236 19.549C32.8875 17.599 35.7894 15.6489 37.0722 14.6609C37.5533 14.2885 38.1532 14.0816 38.7637 14.0816C39.374 14.0816 39.974 14.2885 40.4551 14.6609C41.1689 15.2144 42.3896 16.0627 44.2156 17.0507V2.81042C44.2156 1.8121 43.4035 1 42.4051 1H1.81042C0.812102 1 0 1.8121 0 2.81042V20.806C0 21.8042 0.812102 22.6164 1.81042 22.6164H26.07C26.0597 22.4923 26.0545 22.3732 26.0493 22.2646C25.9976 21.0697 26.7063 19.9783 27.8236 19.549ZM25.3821 17.4696C24.8234 18.0541 24.0734 18.4627 23.2096 18.6438V18.9386C23.2096 19.4507 22.7905 19.8697 22.2785 19.8697H21.875C21.3629 19.8697 20.944 19.4507 20.944 18.9386V18.623C20.4887 18.5248 20.0594 18.3696 19.6663 18.1678C19.1387 17.8989 18.6835 17.4592 18.3059 16.8695C18.0576 16.4763 17.8765 16.0212 17.7628 15.5091C17.7111 15.2608 17.7576 15.0074 17.9024 14.8005C18.0421 14.5883 18.2697 14.4436 18.518 14.4022L18.9214 14.3298C18.9731 14.3195 19.0301 14.3142 19.0818 14.3142C19.5059 14.3142 19.8784 14.604 19.987 15.0178C20.0957 15.4367 20.2353 15.7626 20.4111 15.985C20.8043 16.4867 21.456 16.7868 22.1492 16.7868C22.2682 16.7868 22.3871 16.7765 22.5009 16.7609C22.9975 16.6885 23.4423 16.4505 23.7475 16.104C24.0735 15.7367 24.2389 15.2661 24.2389 14.7126C24.2389 14.247 24.1303 13.8798 23.9079 13.6108C23.4889 13.0987 22.7493 12.8763 22.0768 12.7211C21.1923 12.5194 20.3957 12.3177 19.5888 11.8676C19.0508 11.5676 18.6319 11.1486 18.3421 10.6159C18.0576 10.0934 17.9077 9.4934 17.9077 8.83131C17.9077 7.65712 18.3318 6.69501 19.1646 5.96567C19.625 5.5622 20.2302 5.27771 20.9337 5.1277V4.67251C20.9337 4.16042 21.3527 3.74144 21.8647 3.74144H22.2682C22.7803 3.74144 23.1993 4.16042 23.1993 4.67251V5.13805C23.8459 5.28288 24.4148 5.55186 24.8493 5.90877C25.351 6.32258 25.7183 6.85536 25.9408 7.48125C26.0339 7.73988 26.008 8.02955 25.8632 8.26749C25.7183 8.5106 25.4752 8.67095 25.1959 8.71233L24.8028 8.76923C24.7562 8.77441 24.7097 8.77958 24.6631 8.77958C24.2648 8.77958 23.9079 8.52612 23.7786 8.14852C23.6907 7.89506 23.5769 7.68815 23.4372 7.5278C23.1165 7.17089 22.6096 6.96399 22.0406 6.96399C21.4302 6.96399 20.8612 7.19675 20.5095 7.58987C20.225 7.9054 20.0905 8.27266 20.0905 8.71233C20.0905 9.14166 20.2095 9.50375 20.4422 9.78307C20.9491 10.3934 21.813 10.5693 22.6509 10.7348C23.1682 10.8383 23.7061 10.9469 24.1769 11.1538C24.6838 11.3762 25.1027 11.6556 25.4286 11.9814C25.7596 12.3125 26.0131 12.7056 26.189 13.1556C26.3648 13.6005 26.4528 14.0919 26.4528 14.604C26.4735 15.7472 26.1062 16.7092 25.3821 17.4696Z" fill="#53D8FB"/>
      <path d="M49.171 20.9302C47.9399 20.4543 46.8278 19.9784 45.8346 19.5129C45.2915 19.2595 44.7484 18.9956 44.2156 18.7215C41.8983 17.5266 40.3827 16.4765 39.5551 15.8351C39.3223 15.6541 39.043 15.5662 38.7688 15.5662C38.4947 15.5662 38.2102 15.6541 37.9826 15.8351C36.6636 16.8541 33.6272 18.9025 28.3615 20.9302C27.8442 21.1318 27.508 21.6388 27.5339 22.1975C27.565 22.8802 27.6373 23.5629 27.746 24.2407C28.346 28.0943 30.5081 34.7876 38.1533 38.9154C38.3447 39.0188 38.5568 39.0706 38.7688 39.0706C38.9808 39.0706 39.193 39.0188 39.3844 38.9154C48.6692 33.8928 49.8641 25.0838 49.9985 22.1922C50.0245 21.6388 49.6882 21.1319 49.171 20.9302Z" fill="#53D8FB"/>
    </g>
  </g>
  <defs>
    <filter id="filter0_d_65_1308" x="-4" y="1" width="57.9999" height="46.0706" filterUnits="userSpaceOnUse" color-interpolation-filters="sRGB">
      <feFlood flood-opacity="0" result="BackgroundImageFix"/>
      <feColorMatrix in="SourceAlpha" type="matrix" values="0 0 0 0 0 0 0 0 0 0 0 0 0 0 0 0 0 0 127 0" result="hardAlpha"/>
      <feOffset dy="4"/>
      <feGaussianBlur stdDeviation="2"/>
      <feComposite in2="hardAlpha" operator="out"/>
      <feColorMatrix type="matrix" values="0 0 0 0 0 0 0 0 0 0 0 0 0 0 0 0 0 0 0.25 0"/>
      <feBlend mode="normal" in2="BackgroundImageFix" result="effect1_dropShadow_65_1308"/>
      <feBlend mode="normal" in="SourceGraphic" in2="effect1_dropShadow_65_1308" result="shape"/>
    </filter>
    <clipPath id="clip0_65_1308">
      <rect width="50" height="50" fill="white"/>
    </clipPath>
  </defs>
</svg>