<svg xmlns="http://www.w3.org/2000/svg" width="26" height="28" viewBox="0 0 26 28" fill="none">
  <path d="M13.956 0.666809C14.9643 0.666809 15.8773 1.22681 16.3814 2.05348C16.6267 2.45348 16.7902 2.94681 16.7493 3.46681C16.7221 3.86681 16.8447 4.26681 17.0627 4.64014C17.7577 5.77348 19.2974 6.20014 20.4965 5.56014C21.8455 4.78681 23.5487 5.25348 24.3254 6.57348L25.2384 8.14681C26.0287 9.46681 25.5927 11.1601 24.2301 11.9201C23.0718 12.6001 22.6631 14.1068 23.358 15.2535C23.576 15.6135 23.8213 15.9201 24.2028 16.1068C24.6797 16.3601 25.0476 16.7601 25.3065 17.1601C25.8107 17.9868 25.7698 19.0001 25.2793 19.8935L24.3254 21.4935C23.8213 22.3468 22.8811 22.8801 21.9136 22.8801C21.4367 22.8801 20.9053 22.7468 20.4692 22.4801C20.115 22.2535 19.7062 22.1735 19.2702 22.1735C17.9212 22.1735 16.7902 23.2801 16.7493 24.6001C16.7493 26.1335 15.4957 27.3335 13.9287 27.3335H12.0756C10.4949 27.3335 9.24135 26.1335 9.24135 24.6001C9.21409 23.2801 8.08313 22.1735 6.73414 22.1735C6.28448 22.1735 5.8757 22.2535 5.53505 22.4801C5.09901 22.7468 4.55397 22.8801 4.09068 22.8801C3.1096 22.8801 2.1694 22.3468 1.66523 21.4935L0.725034 19.8935C0.220869 19.0268 0.193616 17.9868 0.697782 17.1601C0.9158 16.7601 1.32458 16.3601 1.78787 16.1068C2.1694 15.9201 2.41467 15.6135 2.64631 15.2535C3.32762 14.1068 2.91884 12.6001 1.76062 11.9201C0.411634 11.1601 -0.0244012 9.46681 0.752286 8.14681L1.66523 6.57348C2.45555 5.25348 4.14518 4.78681 5.50779 5.56014C6.69326 6.20014 8.23301 5.77348 8.92795 4.64014C9.14596 4.26681 9.2686 3.86681 9.24135 3.46681C9.21409 2.94681 9.36398 2.45348 9.62288 2.05348C10.127 1.22681 11.04 0.693476 12.0347 0.666809H13.956ZM13.0158 10.2401C10.8765 10.2401 9.14596 11.9201 9.14596 14.0135C9.14596 16.1068 10.8765 17.7735 13.0158 17.7735C15.1551 17.7735 16.8447 16.1068 16.8447 14.0135C16.8447 11.9201 15.1551 10.2401 13.0158 10.2401Z" fill="#B8BED9"/>
</svg>