<svg xmlns="http://www.w3.org/2000/svg" width="50" height="50" viewBox="0 0 50 50" fill="none">
  <path d="M17.8438 12.5166H15.0581C17.8677 10.2964 21.355 9.04443 24.9834 9.04443C32.8228 9.04443 39.4648 14.6431 40.7769 22.3569L44.2974 21.7588C42.6924 12.3223 34.5698 5.47363 24.9834 5.47363C20.3989 5.47363 15.9985 7.1084 12.5078 9.99512V7.24951H8.93701V16.0879H17.8442V12.5166H17.8438ZM32.1387 37.4868H35.0645C32.229 39.7847 28.6768 41.0854 24.9829 41.0854C17.1382 41.0854 10.4961 35.4824 9.1875 27.7617L5.66699 28.3579C7.2666 37.8022 15.3901 44.6562 24.9829 44.6562C29.5713 44.6562 33.9814 43.0171 37.4751 40.123V42.7549H41.0459V33.916H32.1387V37.4868Z" fill="white"/>
  <path d="M28.4438 19.001L25.0063 22.438L21.5698 19.001L19.6763 20.8945L22.1382 23.3564H20.2227V26.0347H23.667V27.2021H20.3301V29.8804H23.667V33.0991H26.3452V29.8804H29.6836V27.2021H26.3452V26.0347H29.7905V23.3564H27.875L30.3374 20.8945L28.4438 19.001Z" fill="white"/>
</svg>