<svg xmlns="http://www.w3.org/2000/svg" width="80" height="52" viewBox="0 0 80 52" fill="none">
  <path d="M76.8869 70.5C76.8869 68.6041 76.8016 66.7257 76.6342 64.868L74.1443 65.0923C73.8169 61.4569 73.1622 57.9055 72.2071 54.4625L74.6161 53.7942C73.6072 50.1571 72.277 46.6381 70.6555 43.2639L68.4022 44.3467C66.8418 41.0995 64.9996 37.9892 62.9037 35.0415L64.9413 33.5928C62.7817 30.5555 60.3648 27.687 57.7197 25.0126L55.9422 26.7706C53.4245 24.225 50.6903 21.8592 47.7659 19.6972L49.2522 17.6869C46.2781 15.4881 43.1156 13.4943 39.791 11.7281L38.6181 13.9359C35.4662 12.2615 32.1618 10.7978 28.7285 9.56607L29.5727 7.21293C26.1088 5.97018 22.519 4.95652 18.826 4.19207L18.3193 6.64017C14.8371 5.91935 11.2591 5.42695 7.60539 5.18127L7.77312 2.68691C5.93063 2.56302 4.06992 2.5 2.19343 2.5C0.31694 2.5 -1.54377 2.56302 -3.38625 2.68691L-3.21853 5.18127C-6.87223 5.42695 -10.4502 5.91934 -13.9324 6.64017L-14.4392 4.19207C-18.1321 4.95652 -21.7219 5.97018 -25.1859 7.21292L-24.3416 9.56607C-27.775 10.7978 -31.0794 12.2615 -34.2313 13.9359L-35.4041 11.7281C-38.7288 13.4943 -41.8912 15.4881 -44.8653 17.6869L-43.3791 19.6972C-46.3035 21.8592 -49.0376 24.225 -51.5553 26.7706L-53.3328 25.0126C-55.9779 27.687 -58.3949 30.5555 -60.5544 33.5928L-58.5169 35.0415C-60.6128 37.9892 -62.4549 41.0995 -64.0154 44.3467L-66.2687 43.2639C-67.8901 46.6381 -69.2204 50.1571 -70.2293 53.7942L-67.8203 54.4625C-68.7754 57.9055 -69.43 61.4569 -69.7575 65.0923L-72.2474 64.868C-72.4147 66.7257 -72.5 68.6041 -72.5 70.5C-72.5 72.3959 -72.4147 74.2742 -72.2474 76.132L-69.7575 75.9077C-69.43 79.5431 -68.7754 83.0945 -67.8203 86.5375L-70.2293 87.2058C-69.2204 90.8429 -67.8901 94.3619 -66.2687 97.7361L-64.0154 96.6533C-62.4549 99.9005 -60.6128 103.011 -58.5169 105.959L-60.5544 107.407C-58.3949 110.445 -55.9779 113.313 -53.3328 115.987L-51.5553 114.229C-49.0376 116.775 -46.3035 119.141 -43.3791 121.303L-44.8653 123.313C-41.8912 125.512 -38.7288 127.506 -35.4041 129.272L-34.2313 127.064C-31.0794 128.738 -27.775 130.202 -24.3417 131.434L-25.1859 133.787C-21.7219 135.03 -18.1321 136.043 -14.4392 136.808L-13.9324 134.36C-10.4503 135.081 -6.87224 135.573 -3.21854 135.819L-3.38626 138.313C-1.54378 138.437 0.316933 138.5 2.19343 138.5C4.06992 138.5 5.93063 138.437 7.7731 138.313L7.60538 135.819C11.2591 135.573 14.8371 135.081 18.3193 134.36L18.826 136.808C22.5189 136.043 26.1087 135.03 29.5727 133.787L28.7285 131.434C32.1618 130.202 35.4662 128.738 38.6181 127.064L39.791 129.272C43.1156 127.506 46.2781 125.512 49.2522 123.313L47.7659 121.303C50.6903 119.141 53.4245 116.775 55.9422 114.229L57.7197 115.987C60.3648 113.313 62.7817 110.445 64.9413 107.407L62.9037 105.959C64.9996 103.011 66.8418 99.9005 68.4022 96.6533L70.6555 97.7361C72.277 94.3619 73.6072 90.8429 74.6161 87.2058L72.2071 86.5375C73.1622 83.0945 73.8169 79.5431 74.1443 75.9077L76.6342 76.132C76.8016 74.2742 76.8869 72.3959 76.8869 70.5Z" stroke="url(#paint0_linear_261_1602)" stroke-width="5" stroke-dasharray="10 10"/>
  <defs>
    <linearGradient id="paint0_linear_261_1602" x1="-22.0547" y1="14.5" x2="-1.9818" y2="136.686" gradientUnits="userSpaceOnUse">
      <stop stop-color="#4081FF"/>
    </linearGradient>
  </defs>
</svg>