<svg xmlns="http://www.w3.org/2000/svg" width="50" height="58" viewBox="0 0 50 58" fill="none">
  <g clip-path="url(#clip0_68_1343)" filter="url(#filter0_d_68_1343)">
    <path d="M25 10.9375C23.9184 10.9375 22.8611 10.6168 21.9617 10.0159C21.0624 9.41494 20.3615 8.56084 19.9475 7.56155C19.5336 6.56227 19.4253 5.46269 19.6363 4.40185C19.8473 3.34102 20.3682 2.36658 21.133 1.60176C21.8978 0.836944 22.8723 0.316096 23.9331 0.105083C24.9939 -0.10593 26.0935 0.00236956 27.0928 0.416286C28.0921 0.830203 28.9462 1.53115 29.5471 2.43048C30.148 3.32981 30.4688 4.38714 30.4688 5.46875C30.4672 6.91868 29.8905 8.30878 28.8653 9.33403C27.84 10.3593 26.4499 10.936 25 10.9375Z" fill="#53D8FB"/>
    <path d="M42.1875 11.0157L42.1436 11.0274L42.1025 11.0401C42.0049 11.0675 41.9072 11.0968 41.8096 11.1271C39.9922 11.6603 31.1719 14.1466 24.958 14.1466C19.1836 14.1466 11.1611 11.9982 8.59473 11.2687C8.33931 11.1699 8.07847 11.0858 7.81348 11.0167C5.95801 10.5284 4.68848 12.4132 4.68848 14.1358C4.68848 15.8419 6.22168 16.6544 7.76953 17.2374V17.2648L17.0684 20.1691C18.0186 20.5333 18.2725 20.9054 18.3965 21.2276C18.7998 22.2618 18.4775 24.3097 18.3633 25.0245L17.7969 29.4191L14.6533 46.6251C14.6436 46.672 14.6348 46.7198 14.627 46.7687L14.6045 46.8927C14.3779 48.4698 15.5361 50.0001 17.7295 50.0001C19.6436 50.0001 20.4883 48.6788 20.8545 46.881C20.8545 46.881 23.5889 31.4933 24.9561 31.4933C26.3232 31.4933 29.1397 46.881 29.1397 46.881C29.5059 48.6788 30.3506 50.0001 32.2647 50.0001C34.4639 50.0001 35.6221 48.463 35.3897 46.881C35.3691 46.7462 35.3447 46.6134 35.3154 46.4845L32.1289 29.421L31.5635 25.0265C31.1543 22.4669 31.4834 21.6212 31.5947 21.423C31.5977 21.4183 31.6003 21.4134 31.6025 21.4083C31.708 21.213 32.1885 20.7755 33.3096 20.3546L42.0283 17.3067C42.0819 17.2925 42.1347 17.2755 42.1865 17.256C43.749 16.67 45.3115 15.8595 45.3115 14.1378C45.3115 12.4161 44.043 10.5284 42.1875 11.0157Z" fill="#53D8FB"/>
  </g>
  <defs>
    <filter id="filter0_d_68_1343" x="-4" y="0" width="58" height="58" filterUnits="userSpaceOnUse" color-interpolation-filters="sRGB">
      <feFlood flood-opacity="0" result="BackgroundImageFix"/>
      <feColorMatrix in="SourceAlpha" type="matrix" values="0 0 0 0 0 0 0 0 0 0 0 0 0 0 0 0 0 0 127 0" result="hardAlpha"/>
      <feOffset dy="4"/>
      <feGaussianBlur stdDeviation="2"/>
      <feComposite in2="hardAlpha" operator="out"/>
      <feColorMatrix type="matrix" values="0 0 0 0 0 0 0 0 0 0 0 0 0 0 0 0 0 0 0.25 0"/>
      <feBlend mode="normal" in2="BackgroundImageFix" result="effect1_dropShadow_68_1343"/>
      <feBlend mode="normal" in="SourceGraphic" in2="effect1_dropShadow_68_1343" result="shape"/>
    </filter>
    <clipPath id="clip0_68_1343">
      <rect width="50" height="50" fill="white"/>
    </clipPath>
  </defs>
</svg>