<svg xmlns="http://www.w3.org/2000/svg" width="24" height="24" viewBox="0 0 24 24" fill="none">
  <path d="M9 2.5L9.0006 2.5C9.49706 2.49941 9.98793 2.60475 10.4404 2.80898C10.8929 3.01321 11.2967 3.31164 11.6247 3.68433L12 4.11083L12.3753 3.68433C12.7033 3.31164 13.1071 3.01321 13.5596 2.80898C14.0121 2.60475 14.5029 2.49941 14.9994 2.5H15H15.5C15.7652 2.5 16.0196 2.60536 16.2071 2.7929C16.3946 2.98043 16.5 3.23479 16.5 3.5V4C16.5 4.63871 16.3294 5.23568 16.0322 5.74972L15.5983 6.5H16.465H19C19.3978 6.5 19.7794 6.65804 20.0607 6.93934C20.342 7.22065 20.5 7.60218 20.5 8V10C20.5 10.176 20.47 10.3442 20.4149 10.5H13.5V8C13.5 7.60218 13.342 7.22065 13.0607 6.93934C12.7794 6.65804 12.3978 6.5 12 6.5C11.6022 6.5 11.2206 6.65804 10.9393 6.93934C10.658 7.22065 10.5 7.60218 10.5 8V10.5H3.58548C3.52891 10.3403 3.49978 10.1714 3.5 10.0007V10V8C3.5 7.60218 3.65804 7.22065 3.93934 6.93934C4.22065 6.65804 4.60218 6.5 5 6.5H7.535H8.40179L7.96782 5.74967C7.66041 5.21816 7.49902 4.61481 7.5 4.0008V4V3.5C7.5 3.23479 7.60536 2.98043 7.79289 2.7929C7.98043 2.60536 8.23479 2.5 8.5 2.5L9 2.5ZM9 3.5H8.5V4C8.5 4.66304 8.76339 5.29893 9.23224 5.76777C9.70108 6.23661 10.337 6.5 11 6.5H11.5V6C11.5 5.33696 11.2366 4.70108 10.7678 4.23224C10.2989 3.7634 9.66304 3.5 9 3.5ZM15.5 4V3.5H15C14.337 3.5 13.7011 3.76339 13.2322 4.23224C12.7634 4.70108 12.5 5.33696 12.5 6V6.5H13C13.663 6.5 14.2989 6.23661 14.7678 5.76777C15.2366 5.29893 15.5 4.66304 15.5 4ZM19.5 13.5V18C19.5 18.663 19.2366 19.2989 18.7678 19.7678C18.2989 20.2366 17.663 20.5 17 20.5H13.5V13.5H19.5ZM10.5 13.5V20.5H7C6.33696 20.5 5.70108 20.2366 5.23223 19.7678C4.76339 19.2989 4.5 18.663 4.5 18V13.5H10.5Z" stroke="#53D8FB"/>
</svg>